#!OML:ASF F:\VICON\USERDATA\INSTALL\SteveWalk\SteveWalk.ASF
:FULLY-SPECIFIED
:DEGREES
274
root 0.266008 16.0541 12.0721 19.761 -5.65448 -2.17096
lowerback -17.0715 2.8517 1.20466
upperback -5.47458 3.5219 0.442607
thorax 3.74476 1.73927 0.486567
lowerneck -4.67908 -0.501915 -0.578472
upperneck 8.95748 -0.538785 -0.929535
head 3.73184 -0.325919 -0.229935
rclavicle 2.16209e-014 7.55382e-015
rhumerus -14.5833 9.6003 -85.7421
rradius 47.6096
rwrist -14.1447
rhand -18.1086 -32.8811
rfingers 7.12502
rthumb 8.16551 -62.7033
lclavicle 2.16209e-014 7.55382e-015
lhumerus -62.6273 22.0422 58.6562
lradius 14.0144
lwrist -19.5863
lhand -13.787 -12.3064
lfingers 7.12502
lthumb 12.3345 17.3098
rfemur -2.93994 -5.96967 22.7723
rtibia 18.6305
rfoot -22.7482 20.4259
rtoes 2.39154
lfemur -53.4775 9.14496 -24.0437
ltibia 16.5457
lfoot -12.1366 -4.5633
ltoes -1.34044
275
root 0.272744 16.0103 12.3085 19.6946 -5.59976 -1.89373
lowerback -17.1818 2.8119 0.843902
upperback -5.41636 3.53681 0.263118
thorax 3.85537 1.7463 0.511016
lowerneck -4.87134 -0.550911 -0.571009
upperneck 8.95691 -0.619854 -0.753533
head 3.7697 -0.358549 -0.177803
rclavicle 1.0312e-014 1.08338e-014
rhumerus -14.9305 9.37825 -85.7766
rradius 48.1866
rwrist -14.0058
rhand -18.1063 -32.1973
rfingers 7.12502
rthumb 8.16775 -62.0194
lclavicle 1.0312e-014 1.08338e-014
lhumerus -63.5882 23.4199 55.6662
lradius 13.3179
lwrist -22.5304
lhand -13.8936 -12.4341
lfingers 7.12502
lthumb 12.2317 17.1882
rfemur -2.06615 -5.64681 22.2351
rtibia 19.0081
rfoot -22.4764 19.8658
rtoes 0.49813
lfemur -53.173 8.04386 -23.6103
ltibia 17.0605
lfoot -11.9281 -4.25269
ltoes -0.921668
276
root 0.282053 15.9672 12.5354 19.7448 -5.36859 -1.75971
lowerback -17.3138 2.75317 0.6541
upperback -5.34989 3.49718 0.127813
thorax 3.99335 1.726 0.476143
lowerneck -5.24621 -0.560878 -0.624179
upperneck 9.01226 -0.649742 -0.490307
head 3.86428 -0.364298 -0.08454
rclavicle -4.42389e-014 -4.47266e-015
rhumerus -15.1573 9.13846 -85.7561
rradius 48.671
rwrist -13.902
rhand -18.1795 -31.4167
rfingers 7.12502
rthumb 8.09714 -61.2416
lclavicle -4.42389e-014 -4.47266e-015
lhumerus -64.6666 25.191 52.052
lradius 12.5236
lwrist -26.0986
lhand -13.8828 -12.7021
lfingers 7.12502
lthumb 12.2421 16.9196
rfemur -1.52114 -5.27961 21.9291
rtibia 19.6446
rfoot -23.8691 18.1765
rtoes -10.7533
lfemur -52.957 7.20813 -23.4686
ltibia 17.8516
lfoot -12.1909 -3.93281
ltoes -7.80261
277
root 0.294633 15.9343 12.7722 19.8045 -5.0041 -1.82366
lowerback -17.5248 2.71328 0.69739
upperback -5.3713 3.43771 0.0810941
thorax 4.08749 1.69605 0.400121
lowerneck -5.33062 -0.580139 -0.781714
upperneck 9.11404 -0.690971 -0.167993
head 3.91926 -0.376019 0.0474476
rclavicle -9.0152e-016 -3.8763e-015
rhumerus -15.6947 9.10676 -85.6418
rradius 49.1514
rwrist -14.096
rhand -18.3942 -31.5536
rfingers 7.12502
rthumb 7.88985 -61.3864
lclavicle -9.0152e-016 -3.8763e-015
lhumerus -65.6915 26.0746 49.6275
lradius 12.2512
lwrist -28.0827
lhand -13.3391 -11.3247
lfingers 7.12502
lthumb 12.7663 18.265
rfemur -1.15419 -5.08038 21.8408
rtibia 20.5268
rfoot -24.0666 17.7445
rtoes -16.8097
lfemur -52.7468 6.30675 -23.0609
ltibia 18.938
lfoot -12.2957 -3.35093
ltoes -13.0121
278
root 0.297885 15.9136 13.0217 19.6846 -4.83421 -1.91473
lowerback -17.6584 2.7005 0.554261
upperback -5.40938 3.44324 0.100171
thorax 4.10799 1.69877 0.507136
lowerneck -5.10543 -0.614454 -0.930949
upperneck 9.12206 -0.754171 0.12718
head 3.88016 -0.399207 0.169079
rclavicle 2.10034e-014 3.23025e-015
rhumerus -16.5964 9.07728 -85.5311
rradius 49.6927
rwrist -14.3937
rhand -18.5334 -32.2216
rfingers 7.12502
rthumb 7.75551 -62.0594
lclavicle 2.10034e-014 3.23025e-015
lhumerus -67.1703 26.9399 46.7656
lradius 12.0005
lwrist -30.6499
lhand -13.9477 -12.7617
lfingers 7.12502
lthumb 12.1795 16.8637
rfemur -0.831259 -4.4355 21.8085
rtibia 21.5907
rfoot -22.4374 18.617
rtoes -15.2594
lfemur -52.3093 5.26814 -22.2654
ltibia 20.2744
lfoot -12.3775 -2.27275
ltoes -14.3316
279
root 0.304909 15.8917 13.2721 19.6409 -4.56811 -2.06396
lowerback -17.8301 2.67586 0.512839
upperback -5.41046 3.41534 0.12393
thorax 4.19351 1.68473 0.557997
lowerneck -5.19291 -0.712447 -1.0372
upperneck 9.25493 -0.900198 0.383292
head 3.94807 -0.463817 0.265169
rclavicle -1.84602e-014 -1.53282e-014
rhumerus -17.3802 8.95866 -85.4457
rradius 50.14
rwrist -14.6034
rhand -18.6629 -32.0368
rfingers 7.12502
rthumb 7.63052 -61.8792
lclavicle -1.84602e-014 -1.53282e-014
lhumerus -68.1204 27.7482 44.5507
lradius 11.9968
lwrist -31.6592
lhand -12.9834 -11.722
lfingers 7.12502
lthumb 13.1092 17.846
rfemur -0.607214 -3.91309 21.89
rtibia 22.554
rfoot -20.5008 19.6231
rtoes -12.6428
lfemur -52.0987 4.4311 -21.7194
ltibia 21.846
lfoot -11.9202 -1.67311
ltoes -14.5577
280
root 0.313589 15.8791 13.5173 19.6808 -4.43451 -1.92868
lowerback -17.9839 2.62973 0.192348
upperback -5.46309 3.41505 0.0315623
thorax 4.20593 1.68414 0.646618
lowerneck -5.32936 -0.865507 -1.07647
upperneck 9.39945 -1.12241 0.59786
head 4.03076 -0.565252 0.331668
rclavicle -1.34985e-014 -4.82053e-015
rhumerus -18.1098 8.84345 -85.4342
rradius 50.4639
rwrist -14.749
rhand -18.668 -32.1145
rfingers 7.12502
rthumb 7.62559 -61.957
lclavicle -1.34985e-014 -4.82053e-015
lhumerus -69.4905 28.8939 41.1966
lradius 11.5058
lwrist -34.2569
lhand -13.1883 -12.2019
lfingers 7.12502
lthumb 12.9117 17.3787
rfemur -0.405634 -3.44075 21.6606
rtibia 23.3781
rfoot -18.7644 19.9789
rtoes -12.5716
lfemur -52.0933 3.81309 -21.7634
ltibia 23.4572
lfoot -9.96683 -1.19865
ltoes -16.6891
281
root 0.325376 15.887 13.7771 19.74 -4.43414 -1.40585
lowerback -18.3096 2.54319 -0.471851
upperback -5.49042 3.43273 -0.219035
thorax 4.32519 1.69037 0.774523
lowerneck -5.57023 -0.966233 -1.08866
upperneck 9.58795 -1.28306 0.87488
head 4.15085 -0.63172 0.417029
rclavicle 2.52985e-015 0
rhumerus -18.9793 8.59238 -85.523
rradius 50.858
rwrist -14.8824
rhand -18.1356 -34.0896
rfingers 7.12502
rthumb 8.13951 -63.9129
lclavicle 2.52985e-015 0
lhumerus -71.5395 30.5511 36.2698
lradius 10.9146
lwrist -38.0212
lhand -13.31 -13.3835
lfingers 7.12502
lthumb 12.7943 16.2044
rfemur -0.240643 -3.11576 20.9452
rtibia 24.2803
rfoot -16.7256 20.3888
rtoes -12.5093
lfemur -52.1768 2.98698 -21.9724
ltibia 24.9479
lfoot -7.52535 -0.910912
ltoes -18.3306
282
root 0.341653 15.9027 14.0425 19.8721 -4.27867 -1.06868
lowerback -18.6127 2.45764 -0.867042
upperback -5.5544 3.40606 -0.444775
thorax 4.40765 1.67517 0.765104
lowerneck -5.95097 -1.02439 -1.01757
upperneck 9.89056 -1.39321 1.12518
head 4.33985 -0.670078 0.481156
rclavicle 6.25321e-014 1.78906e-014
rhumerus -20.0052 8.32195 -85.645
rradius 51.2743
rwrist -14.9791
rhand -17.0902 -37.4915
rfingers 7.12502
rthumb 9.14832 -67.2731
lclavicle 6.25321e-014 1.78906e-014
lhumerus -72.8259 31.6393 33.1385
lradius 10.7207
lwrist -40.119
lhand -13.6621 -12.6119
lfingers 7.12502
lthumb 12.4549 16.997
rfemur -0.350753 -3.00019 20.4464
rtibia 25.4998
rfoot -13.646 21.3445
rtoes -9.17473
lfemur -52.5366 1.97741 -21.6133
ltibia 26.2497
lfoot -5.48929 -1.25817
ltoes -13.469
283
root 0.349908 15.9058 14.2936 20.0242 -4.23938 -0.8302
lowerback -18.7339 2.3826 -1.28249
upperback -5.76837 3.39272 -0.637036
thorax 4.23055 1.67052 0.791958
lowerneck -5.94901 -1.06486 -0.840751
upperneck 10.0293 -1.48895 1.33064
head 4.39139 -0.700118 0.513524
rclavicle -4.32784e-015 -3.97569e-016
rhumerus -21.0977 8.02298 -85.8744
rradius 51.3977
rwrist -14.9074
rhand -17.8843 -33.4259
rfingers 7.12502
rthumb 8.38203 -63.2396
lclavicle -4.32784e-015 -3.97569e-016
lhumerus -74.3868 32.3751 29.8416
lradius 10.6245
lwrist -41.7317
lhand -13.5504 -12.4067
lfingers 7.12502
lthumb 12.5626 17.1956
rfemur -0.772172 -2.73498 20.0683
rtibia 27.1937
rfoot -10.4269 21.924
rtoes -7.2774
lfemur -52.9318 1.52328 -21.4378
ltibia 27.38
lfoot -3.87915 -2.13975
ltoes -7.07129
284
root 0.352703 15.8969 14.5377 20.0691 -4.24209 -0.498386
lowerback -18.715 2.28644 -1.82304
upperback -6.01098 3.37247 -0.863585
thorax 3.9443 1.66531 0.844314
lowerneck -5.81436 -1.09367 -0.805526
upperneck 10.1583 -1.57889 1.75211
head 4.41723 -0.722363 0.645025
rclavicle -2.0686e-014 0
rhumerus -22.2856 7.49885 -86.2126
rradius 51.358
rwrist -14.7747
rhand -18.6029 -31.6848
rfingers 7.12502
rthumb 7.68844 -61.5251
lclavicle -2.0686e-014 0
lhumerus -74.7409 32.2823 29.0254
lradius 10.6156
lwrist -41.7521
lhand -14.05 -11.0286
lfingers 7.12502
lthumb 12.0809 18.6026
rfemur -1.42276 -2.58328 19.5698
rtibia 29.4358
rfoot -7.18467 22.0475
rtoes -6.05485
lfemur -52.8916 1.55459 -21.8648
ltibia 28.4486
lfoot -2.62272 -3.19423
ltoes -8.94025
